<svg height="32" xmlns="http://www.w3.org/2000/svg" viewBox="0.13 0.13 25.8 5.16"><g fill="#6b7280" transform="translate(-527.65204 87.243319)"><path d="m534.21058-85.582783v1.154797h1.3367v-1.154797h.35967v2.76159h-.35967v-1.295357h-1.3367v1.295357h-.35691v-2.76159zm0 0"></path><path d="m538.2124-83.828539c0 .733114-.50711 1.052819-.98667 1.052819-.53744 0-.95085-.394116-.95085-1.021126 0-.662834.43408-1.052819.98254-1.052819.57051 0 .95498.41341.95498 1.021126m-1.57371.0193c0 .435458.2508.763432.60357.763432.34452 0 .60221-.323839.60221-.771701 0-.336243-.16812-.762057-.59394-.762057-.42719 0-.61184.39412-.61184.770326"></path><path d="m538.57207-84.268135c0-.203948-.006-.372068-.0165-.536057h.31557l.0165.319705h.0124c.11025-.188789.29491-.365178.6215-.365178.27147 0 .4768.163985.56224.398251h.008c.0606-.111619.13919-.197058.22049-.259069.11989-.08957.2508-.139182.43959-.139182.26183 0 .65182.172254.65182.861272v1.1672h-.35278v-1.123103c0-.380337-.13918-.610471-.42995-.610471-.20533 0-.36518.151585-.42719.327974-.0152.04961-.0276.114377-.0276.180523v1.225077h-.35278v-1.18787c0-.31557-.13919-.545704-.41341-.545704-.226 0-.38999.180523-.44787.361046-.0207.05375-.0289.114378-.0289.176389v1.196139h-.35141zm0 0"></path><path d="m542.10398-83.765148c.008.497469.3266.701421.69453.701421.26321 0 .42169-.04548.55949-.104733l.0634.264583c-.13092.05788-.3514.128157-.67386.128157-.62287 0-.99495-.413409-.99495-1.023881 0-.610471.35967-1.090027.94947-1.090027.66008 0 .83509.580154.83509.952222 0 .07579-.007.133671-.0124.172258zm1.07901-.264584c.004-.23289-.0965-.596692-.50988-.596692-.37206 0-.53467.341754-.56499.596692zm0 0"></path><path d="m544.36535-83.707272-.29353.886079h-.3762l.95774-2.816711h.43821l.96187 2.816711h-.38861l-.30041-.886079zm.92328-.283876-.27561-.811664c-.0634-.183279-.10473-.351399-.14607-.514008h-.01c-.0413.16674-.0868.338998-.14194.509873l-.27561.815799zm0 0"></path><path d="m546.41587-84.844155.26733 1.028016c.0593.226.113.434083.15159.643544h.0124c.0455-.203948.113-.421678.17914-.643544l.33073-1.028016h.30868l.31419 1.011481c.0744.242535.13367.456131.17915.660079h.0124c.0331-.203948.0882-.417544.15572-.655944l.28801-1.015616h.3638l-.65181 2.022962h-.33486l-.31006-.966004c-.0703-.224621-.12953-.425817-.17915-.664217h-.008c-.0496.242535-.113.451996-.18466.668348l-.32521.961873h-.33487l-.61047-2.022962zm0 0"></path><path d="m550.65471-83.306262c0 .176389.007.347264.0331.485069h-.33486l-.0289-.254938h-.0124c-.113.159854-.33073.301791-.61874.301791-.41066 0-.61874-.289387-.61874-.581533 0-.489204.43408-.756543 1.21681-.752408v-.04272c0-.166744-.0469-.467155-.46027-.467155-.18879 0-.38447.05788-.52641.150205l-.0841-.242534c.16674-.108868.40928-.179145.66422-.179145.61874 0 .77032.421679.77032.826823zm-.35553-.547081c-.40239-.0083-.85714.06201-.85714.456128 0 .237024.15847.350022.34726.350022.26321 0 .42995-.16674.48783-.337619.0138-.03858.022-.07993.022-.117132zm0 0"></path><path d="m551.2514-84.844155.44235 1.19476c.0469.133671.0965.293522.12954.414789h.008c.0386-.121267.0799-.275608.12954-.423058l.40101-1.186491h.38998l-.55259 1.441429c-.26321.694531-.44235.994943-.69315 1.211294-.18053.159855-.35967.221866-.452.238401l-.0923-.308681c.0923-.02893.2136-.08819.32246-.18052.1006-.07855.226-.221865.31006-.409278.0166-.03721.0289-.06753.0289-.08819 0-.02067-.01-.04961-.0262-.09508l-.74827-1.809366zm0 0"></path><path d="m553.5858-84.596106c0 .148826-.11989.267339-.27147.267339-.15159 0-.27286-.118513-.27286-.267339 0-.14883.12127-.264583.27423-.264583.15021 0 .2701.115753.2701.264583m-.4768 0c0 .118509.0896.212217.2067.212217.11438.0014.20257-.09371.20257-.209462 0-.118512-.0882-.213596-.20532-.213596-.11438 0-.20395.09508-.20395.210841m.1626.137802h-.0606v-.264583c.0248-.0041.0579-.0083.10198-.0083.0496 0 .073.0083.0896.02067.0166.01101.0276.0303.0276.0565 0 .03305-.0234.05375-.0537.06339v.0028c.0248.0083.0386.02893.0455.06477.008.03996.0152.05512.0207.06477h-.0648c-.008-.0096-.0138-.03168-.0207-.06477-.005-.02755-.0221-.03996-.0551-.03996h-.0303zm.003-.148826h.0289c.0331 0 .0606-.01101.0606-.03859 0-.0248-.0179-.04134-.0565-.04134-.0166 0-.0276.0028-.0331.0041zm0 0"></path><path d="m531.55924-87.111027h-2.35783l-1.39044 1.642622.48921-.03447v1.776293l-.37345.05512s-.18053.03306-.13505.224621c.0386.140561.1819.140561.1819.140561l.3266-.05375v.47129l2.34404.424437 1.84381-.420303-.003-2.581066.50436-.04547zm-.47818 1.954057.51263-.04685v.675238l-.51539.06752zm-2.60863 2.140095v-.370692l1.01424-.16812s.17501.0014.16123-.195682c-.0124-.175013-.19844-.144695-.19844-.144695l-.97703.144695v-1.799717l1.03353-1.220943 1.13826 1.274685v2.874589zm2.60587-.529167.001-.697286.51264-.06891.004.675242zm1.14929-.202572-.42444.07442v-.668348l.42444-.06201zm-.42444-.807529v-.669728l.42444-.04134.001.654569zm0 0"></path><path d="m529.98138-85.446357c-.11989-.137802-.28387-.227376-.46439-.227376-.01 0-.0193 0-.0276.0014-.17914.0083-.33624.104729-.4451.246665-.10887.14194-.17364.332109-.17364.538815 0 .01655.001.03447.001.05237.0124.212217.0882.402385.20809.541566.11989.139182.28387.227376.4644.227376h.0289c.17915-.0096.33487-.104729.44373-.246669.10887-.141937.17364-.332105.17364-.538812 0-.01792 0-.03447-.001-.05237-.011-.212217-.0882-.402385-.20808-.542946m-.0689 1.052823c-.0896.117133-.21084.188789-.34589.195679-.007 0-.0152.0014-.0221.0014-.13642 0-.26458-.06615-.3638-.181903-.0992-.115753-.16674-.278363-.17639-.463021 0-.01517-.001-.0303-.001-.04547 0-.179144.0565-.341753.14607-.458886.0896-.117133.21084-.188793.34589-.195682h.022c.13642 0 .26458.06614.36518.181899.0978.115757.16536.278366.17639.463021 0 .01517.001.0303.001.04548 0 .179144-.0565.341754-.14745.457511"></path><path d="m529.30339-84.855179c-.0124-.23151.062-.429948.17639-.505738-.19293.01379-.33762.242534-.32384.515387.0152.274228.18466.4892.38034.479555v-.0028c-.12265-.06201-.22049-.253559-.23289-.486449"></path></g></svg>