<?xml version="1.0" encoding="UTF-8"?>
<svg width="18px" height="18px" viewBox="0 0 18 18" version="1.1" xmlns="http://www.w3.org/2000/svg" xmlns:xlink="http://www.w3.org/1999/xlink">
    <g stroke="none" stroke-width="1" fill="none" fill-rule="evenodd">
        <path d="M17,9 C17,4.58172178 13.4182782,1 9,1 C4.58172178,1 1,4.58172178 1,9 C1,13.4182782 4.58172178,17 9,17 C13.4182782,17 17,13.4182782 17,9 Z M7.11111111,12.7777778 L7.11111111,9 L6,9 L6,7.44444444 L7.11111111,7.44444444 L7.11111111,6.33333333 C7.11111111,4.77777778 8.22222222,3.66666667 9.77777778,3.66666667 L11.3333333,3.66666667 L11.3333333,5.22222222 L9.77777778,5.22222222 C9.22222222,5.22222222 9,5.44444444 9,6 L9,7.44444444 L11.3333333,7.44444444 L11,9 L9,9 L9,12.7777778 L7.11111111,12.7777778 Z" fill="#1877F2" fill-rule="nonzero"></path>
    </g>
</svg>