<?xml version="1.0" encoding="UTF-8"?>
<svg width="18px" height="18px" viewBox="0 0 18 18" version="1.1" xmlns="http://www.w3.org/2000/svg" xmlns:xlink="http://www.w3.org/1999/xlink">
    <g stroke="none" stroke-width="1" fill="none" fill-rule="evenodd">
        <path d="M9,0 C4.02943725,0 0,4.02943725 0,9 C0,13.9705627 4.02943725,18 9,18 C13.9705627,18 18,13.9705627 18,9 C18,4.02943725 13.9705627,0 9,0 Z M12.75,13.5 L5.25,13.5 L5.25,4.5 L12.75,4.5 L12.75,13.5 Z M9,11.25 C10.2426407,11.25 11.25,10.2426407 11.25,9 C11.25,7.75735931 10.2426407,6.75 9,6.75 C7.75735931,6.75 6.75,7.75735931 6.75,9 C6.75,10.2426407 7.75735931,11.25 9,11.25 Z" fill="#00B551" fill-rule="nonzero"></path>
    </g>
</svg>