<?xml version="1.0" encoding="UTF-8"?>
<svg width="18px" height="18px" viewBox="0 0 18 18" version="1.1" xmlns="http://www.w3.org/2000/svg" xmlns:xlink="http://www.w3.org/1999/xlink">
    <g stroke="none" stroke-width="1" fill="none" fill-rule="evenodd">
        <path d="M15.3857143,11.4857143 L11.4857143,13.0285714 C11.1428571,13.1714286 10.8,12.9428571 10.8,12.6 L10.8,9.42857143 C10.8,9.08571429 11.1428571,8.85714286 11.4857143,9 L15.3857143,10.5428571 C15.7285714,10.6857143 15.7285714,11.3428571 15.3857143,11.4857143 Z M10.8,5.4 C10.8,5.05714286 11.1428571,4.82857143 11.4857143,4.97142857 L15.3857143,6.51428571 C15.7285714,6.65714286 15.7285714,7.31428571 15.3857143,7.45714286 L11.4857143,9 C11.1428571,9.14285714 10.8,8.91428571 10.8,8.57142857 L10.8,5.4 Z M7.2,3.85714286 C7.2,4.2 6.85714286,4.42857143 6.51428571,4.28571429 L2.61428571,2.74285714 C2.27142857,2.6 2.27142857,1.94285714 2.61428571,1.8 L6.51428571,0.257142857 C6.85714286,0.114285714 7.2,0.342857143 7.2,0.685714286 L7.2,3.85714286 Z M15.3857143,14.1428571 L11.4857143,15.6857143 C11.1428571,15.8285714 10.8,15.6 10.8,15.2571429 L10.8,12.0857143 C10.8,11.7428571 11.1428571,11.5142857 11.4857143,11.6571429 L15.3857143,13.2 C15.7285714,13.3428571 15.7285714,14 15.3857143,14.1428571 Z M7.2,17.3142857 C7.2,17.6571429 6.85714286,17.8857143 6.51428571,17.7428571 L2.61428571,16.2 C2.27142857,16.0571429 2.27142857,15.4 2.61428571,15.2571429 L6.51428571,13.7142857 C6.85714286,13.5714286 7.2,13.8 7.2,14.1428571 L7.2,17.3142857 Z" fill="#D32323" fill-rule="nonzero"></path>
    </g>
</svg>