<?xml version="1.0" encoding="UTF-8"?>
<svg xmlns="http://www.w3.org/2000/svg" version="1.1" viewBox="0 0 1024 1024">
  <path fill="#FF385C" d="M352,348l146.52-136.98c8.05-7.02,18.65-6.72,26.49.46l249,228c3.56,4.08,4.69,12.63.51,16.54-.54.51-4.73,2.98-5.02,2.98h-46.5v129c52.69,3.49,101.89,30.55,138,67.99-45.14-24.45-98.8-28.18-148.21-15.7-138.98,34.87-216.88,180.09-377.97,150.39-43.47-8.01-80.79-31-111.82-61.67,81.71,30.57,173.15,1.08,241.02-47.71l.67-140.11c1.68-6.48,8.44-10.47,14.81-11.19,13.98-1.57,47.85-1.41,61.99.01,5.54.56,10.69,2.44,13.72,7.28.48.77,2.79,5.87,2.79,6.21v86.5c33.67-18.78,70.73-31.38,108.56-38.97l-.78-171.82-153.28-137.19-154.5,141.49c35.81,4.61,48.08,41.27,51,72.5h-162c.2-37.48,14.45-70.08,55.06-75.61l-.1-212.93c.58-22.64,28.59-33.16,43.55-15.46,2.59,3.07,6.49,11.73,6.49,15.51v140.5-.02Z"/>
  <path fill="#FF385C" d="M301,709c25.68-40.2,31.91-90.99,32.99-137.99l-10.49,41.99c-7.69,26.86-26.45,82.48-55.7,91.3-12.84,3.87-26.39,1.15-38.8-2.8,36.34-34.57,47.5-86.66,54.99-134.5-1.72.28-1.74,1.99-2.26,3.23-3.83,9.14-6.42,20.22-10.24,29.76-8.55,21.35-20.63,44.28-34.07,62.93-6.62,9.18-24.63,31.97-36.04,33.04-7.37.69-34.15-11.28-35.25-18.69-.46-3.12,10.78-12.23,13.39-15.25,35.55-41.2,54.7-97.26,64.94-150.06l166.96-1.02c.75.13,2.95,12.88,3.29,14.85,6.9,39.9,16.75,125.3-9.29,158.13-7.81,9.85-19.62,15.47-31.41,19.08,2.18-8.84,4.47-17.61,5.83-26.66,4.55-30.27,3.24-56.69.18-86.84-.09-.92.64-11.94-2-8.49-2.02,33.59-9.05,94.16-36.53,116.97-5.17,4.29-18.46,11.02-24.98,11.02h-15.51Z"/>
  <path fill="#FF385C" d="M851,696.99c-45.06-12.53-88.83-4.78-130.68,13.83-35.45,15.77-66.59,39.11-100.65,57.35-52.71,28.22-109.94,47.19-170.67,44.82l45.26-14.22c103.03-35.93,192.43-158.07,312.15-123.69,15.57,4.47,31.51,12.4,44.58,21.91h0Z"/>
  <path fill="#FF385C" d="M504,427v50h-55v-50"/>
  <path fill="#FF385C" d="M574.5,427v50h-55v-50"/>
  <path fill="#FF385C" d="M575,415h-56v-58c30.7,1.09,54.44,28.03,56,58Z"/>
  <path fill="#FF385C" d="M504,357v58h-55c1.23-29.49,24.62-57.19,55-58Z"/>
</svg>