<?xml version="1.0" encoding="UTF-8"?>
<svg id="Layer_1" xmlns="http://www.w3.org/2000/svg" version="1.1" viewBox="0 0 369 369">
  <path d="M40.73,39.23l283.3.24c3.41,1.13,5.37,3.1,6.5,6.5l-.28,283.77-6.19,5.81-284.08-.03c-3.41-1.13-5.37-3.1-6.5-6.5V45.97c1.18-3.71,3.55-5.67,7.26-6.74ZM159.5,58H53v165h103.5c4.95,0,9.98,16.02-4.09,17.91-16.11,2.17-38.56-.62-55.18-.67-10.99-.03-21.76.78-32.73.83-3.56.02-8.27-.13-11.5-1.07v78h149v-19.5c0-.29,2.49-4.5,3.03-4.97,4.01-3.42,15.97-1.28,15.97,3.97v20.5h89.5v-142h-89.5v89.5c0,7.17-19,7.79-19-1v-88.5h-34.5c-.33,0-5.15-3.16-5.54-3.72-.9-1.29-1.79-5.08-1.96-6.78-2.83-28.05-.2-66.84-.05-96.05,0-1.74,1.9-10.87-.45-11.46ZM312,58h-132v100h132V58Z"/>
</svg>