<?xml version="1.0" encoding="UTF-8"?>
<svg id="Layer_1" xmlns="http://www.w3.org/2000/svg" version="1.1" viewBox="0 0 339 339">
  <path d="M46,208h124c-1.91-8.68,3.51-17.58,13.05-14.56,1.66.53,5.95,4.66,5.95,6.06v98.5h107V38h-107v88h39.5c.29,0,4.48,2.47,4.97,3.03,4.72,5.38,2.46,15.55-5.02,16.92-6.6,1.21-43.97,1.08-50.9,0-2.44-.38-7.56-4.3-7.56-6.44V38H46v102.5c0,5.67-12.92,8.59-17.47,3.48-3.9-4.37-1.47-8.76-1.61-12.58-1.14-31.47-2.08-65.38.11-96.95.44-6.38-2.42-12.2,6.9-15.02l271.48-.34c10.29,1.7,9.48,10.22,9.64,18.45,1.53,81.27-.87,162.63-.95,243.85,0,6.08,1.47,14.97.98,21.09-.4,5-1.56,10.23-6.33,12.76l-275,.51c-3.41-1.75-6.7-3.99-6.77-8.23l.08-109.96c1.11-5.56,5.24-6.91,10.47-6.63,10.4.56,8.47,9.14,8.47,17.07ZM170,226H46v72h124v-72Z"/>
</svg>