<?xml version="1.0" encoding="UTF-8"?>
<svg id="Layer_1" xmlns="http://www.w3.org/2000/svg" version="1.1" viewBox="0 0 1024 1024">
  <path d="M155,863h317v-363.5c0-5.42,8.9-14.09,14.59-14.41l119.67.15c17.04,3.91,21.25,29.89,7.07,39.59-1.04.71-8.23,4.17-8.83,4.17h-88.5v334h351v-334h-176.5c-1.58,0-9.47-4.6-10.9-6.1-8.06-8.41-7.44-24.89.91-32.9.83-.8,7.52-5.01,7.99-5.01h178.5V136H155v268.5c0,4.87-4.58,12.48-8.5,15.5-13.46,10.35-35.77,4.19-38.41-13.58l.6-303.23c2.5-7.73,9.12-14.55,17.77-14.23h768.08c11.32,1.01,18.4,9.28,18.5,20.5v780.08c-.75,9.79-8.57,18.02-18.5,18.5l-771.6-.48c-8.3-2.08-14.33-9.46-14.98-18.02l.04-387.04c.75-6.99,6.37-14.66,13.01-16.98,3.85-1.35,15.29-1.08,19.43-.45,7.07,1.07,14.56,11.66,14.56,18.43v359.5Z"/>
</svg>